<svg xmlns="http://www.w3.org/2000/svg" width="35" height="35" viewBox="0 0 35 35">
  <path id="iconmonstr-instagram-13" d="M22.215,8c-1.229-.055-1.6-.067-4.715-.067s-3.484.012-4.713.067C9.622,8.148,8.148,9.647,8,12.785c-.057,1.231-.07,1.6-.07,4.715s.013,3.484.069,4.715c.144,3.133,1.613,4.637,4.782,4.782,1.229.055,1.6.069,4.715.069s3.485-.012,4.715-.067c3.165-.144,4.637-1.646,4.782-4.782.055-1.231.067-1.6.067-4.715s-.012-3.484-.067-4.713C26.852,9.648,25.376,8.148,22.215,8ZM17.5,23.491A5.991,5.991,0,1,1,23.491,17.5,5.99,5.99,0,0,1,17.5,23.491Zm6.229-10.818a1.4,1.4,0,1,1,1.4-1.4A1.4,1.4,0,0,1,23.728,12.673ZM21.389,17.5A3.889,3.889,0,1,1,17.5,13.611,3.889,3.889,0,0,1,21.389,17.5ZM27.708,0H7.292A7.292,7.292,0,0,0,0,7.292V27.708A7.292,7.292,0,0,0,7.292,35H27.708A7.292,7.292,0,0,0,35,27.708V7.292A7.292,7.292,0,0,0,27.708,0ZM29.1,22.31C28.9,26.552,26.543,28.9,22.311,29.1c-1.245.057-1.642.07-4.811.07s-3.564-.013-4.81-.07C8.45,28.9,6.1,26.548,5.9,22.31c-.057-1.244-.07-1.641-.07-4.81s.013-3.566.07-4.81C6.1,8.45,8.452,6.1,12.69,5.9c1.245-.058,1.641-.071,4.81-.071s3.566.013,4.811.07c4.241.194,6.6,2.554,6.786,6.786.057,1.245.07,1.644.07,4.811S29.153,21.066,29.1,22.31Z" fill="#d9d9d9"/>
</svg>
