<svg xmlns="http://www.w3.org/2000/svg" width="60" height="60.003" viewBox="0 0 60 60.003">
  <path id="iconmonstr-link-3" d="M42.585,17.415a3.73,3.73,0,0,1,0,5.28L22.7,42.586a3.734,3.734,0,1,1-5.28-5.28L37.307,17.415a3.732,3.732,0,0,1,5.278,0ZM19.739,50.882a7.51,7.51,0,0,1-10.62-10.62l14.1-14.081A14.425,14.425,0,0,0,9.594,30L4.226,35.368A14.431,14.431,0,0,0,24.634,55.777L30,50.407A14.423,14.423,0,0,0,33.82,36.786l-14.081,14.1ZM35.367,4.225,30,9.595a14.4,14.4,0,0,0-3.825,13.613L40.262,9.12a7.51,7.51,0,1,1,10.62,10.62L36.795,33.828A14.412,14.412,0,0,0,50.408,30l5.365-5.368A14.431,14.431,0,0,0,35.367,4.225Z" transform="translate(0 0)" fill="#fff"/>
</svg>
