<svg xmlns="http://www.w3.org/2000/svg" width="30.763" height="25" viewBox="0 0 30.763 25">
  <path id="iconmonstr-twitter-1" d="M30.763,5.208a12.6,12.6,0,0,1-3.625.993,6.322,6.322,0,0,0,2.775-3.492A12.643,12.643,0,0,1,25.9,4.241,6.315,6.315,0,0,0,15.149,10,17.917,17.917,0,0,1,2.142,3.4a6.32,6.32,0,0,0,1.952,8.426,6.285,6.285,0,0,1-2.857-.79A6.316,6.316,0,0,0,6.3,17.308a6.326,6.326,0,0,1-2.851.108,6.316,6.316,0,0,0,5.9,4.382A12.69,12.69,0,0,1,0,24.413a17.867,17.867,0,0,0,9.675,2.835c11.718,0,18.338-9.9,17.939-18.773a12.85,12.85,0,0,0,3.149-3.267Z" transform="translate(0 -2.248)" fill="#fff"/>
</svg>
