<svg xmlns="http://www.w3.org/2000/svg" width="35" height="35" viewBox="0 0 35 35">
  <path id="iconmonstr-youtube-3" d="M13.532,19.717H12.162v7.331H10.838V19.717H9.467V18.471h4.066v1.245Zm7.868,2.51v3.509c0,.783-.292,1.391-1.073,1.391a1.35,1.35,0,0,1-1.119-.566v.486H18.022V18.471h1.186v2.761a1.413,1.413,0,0,1,1.047-.591c.86,0,1.145.728,1.145,1.585Zm-1.21.071a.781.781,0,0,0-.125-.486.486.486,0,0,0-.612-.1l-.244.193v3.942l.277.223a.5.5,0,0,0,.6-.066.736.736,0,0,0,.1-.436V22.3Zm-3.423-8.544c.334,0,.516-.267.516-.629v-3.09c0-.372-.162-.633-.541-.633-.346,0-.515.27-.515.633v3.09A.562.562,0,0,0,16.766,13.754ZM15.7,25.522C15.553,25.7,15.235,26,15,26c-.251,0-.314-.172-.314-.426V20.721H13.517v5.288c0,1.283.871,1.291,1.5.927a2.61,2.61,0,0,0,.677-.588v.7h1.177V20.721H15.7v4.8ZM35,7.292V27.708A7.292,7.292,0,0,1,27.708,35H7.292A7.292,7.292,0,0,1,0,27.708V7.292A7.292,7.292,0,0,1,7.292,0H27.708A7.292,7.292,0,0,1,35,7.292ZM19.591,13.748c0,.656.2,1.186.863,1.186a1.954,1.954,0,0,0,1.428-.83v.734h1.235V8.2H21.882v5.041c-.152.188-.486.5-.726.5-.265,0-.33-.181-.33-.448V8.2H19.591v5.552ZM14.958,9.925v3.256a1.6,1.6,0,0,0,1.808,1.779,1.692,1.692,0,0,0,1.776-1.779V9.925A1.735,1.735,0,0,0,16.766,8.14,1.7,1.7,0,0,0,14.958,9.925Zm-4.6-4.092,1.655,5.352v3.652H13.4V11.185l1.619-5.352H13.608l-.891,3.6-.96-3.6h-1.4ZM27.221,22.848c-.02-4.343-.338-6-3.079-6.191-2.529-.172-10.758-.172-13.284,0-2.736.187-3.06,1.84-3.079,6.191.02,4.343.34,6,3.079,6.191,2.526.172,10.755.172,13.284,0C26.88,28.85,27.2,27.2,27.221,22.848Zm-1.474-.426v1.61H23.5v1.193c0,.474.039.885.513.885.5,0,.525-.334.525-.885v-.439h1.21v.475c0,1.219-.522,1.957-1.762,1.957-1.124,0-1.7-.818-1.7-1.957V22.422a1.738,1.738,0,0,1,1.786-1.859c1.127,0,1.673.716,1.673,1.859Zm-1.21-.012c0-.427-.09-.741-.515-.741s-.524.306-.524.741v.64h1.038Z" fill="#c7363d"/>
</svg>
