<svg xmlns="http://www.w3.org/2000/svg" width="20" height="20" viewBox="0 0 20 20">
  <path id="iconmonstr-twitter-3" d="M15.833,0H4.167A4.167,4.167,0,0,0,0,4.167V15.833A4.167,4.167,0,0,0,4.167,20H15.833A4.167,4.167,0,0,0,20,15.833V4.167A4.167,4.167,0,0,0,15.833,0Zm-.116,7.7A7.78,7.78,0,0,1,3.749,14.606,5.5,5.5,0,0,0,7.8,13.473a2.738,2.738,0,0,1-2.555-1.9,2.751,2.751,0,0,0,1.235-.047A2.738,2.738,0,0,1,4.285,8.81a2.722,2.722,0,0,0,1.238.343A2.741,2.741,0,0,1,4.677,5.5a7.767,7.767,0,0,0,5.638,2.858,2.737,2.737,0,0,1,4.662-2.494A5.486,5.486,0,0,0,16.715,5.2a2.747,2.747,0,0,1-1.2,1.513,5.482,5.482,0,0,0,1.571-.431A5.55,5.55,0,0,1,15.717,7.7Z" fill="#0d4077"/>
</svg>
