<svg xmlns="http://www.w3.org/2000/svg" width="20" height="20" viewBox="0 0 20 20">
  <path id="iconmonstr-instagram-13" d="M12.694,4.573c-.7-.032-.914-.038-2.694-.038s-1.991.007-2.693.038A2.5,2.5,0,0,0,4.574,7.306c-.033.7-.04.914-.04,2.694s.007,1.991.039,2.694a2.5,2.5,0,0,0,2.732,2.733c.7.032.914.039,2.694.039s1.992-.007,2.694-.038a2.5,2.5,0,0,0,2.732-2.733c.032-.7.038-.914.038-2.694s-.007-1.991-.038-2.693A2.506,2.506,0,0,0,12.694,4.573ZM10,13.423A3.423,3.423,0,1,1,13.423,10,3.423,3.423,0,0,1,10,13.423Zm3.559-6.182a.8.8,0,1,1,.8-.8A.8.8,0,0,1,13.559,7.242ZM12.222,10A2.222,2.222,0,1,1,10,7.778,2.222,2.222,0,0,1,12.222,10ZM15.833,0H4.167A4.167,4.167,0,0,0,0,4.167V15.833A4.167,4.167,0,0,0,4.167,20H15.833A4.167,4.167,0,0,0,20,15.833V4.167A4.167,4.167,0,0,0,15.833,0Zm.793,12.748a3.681,3.681,0,0,1-3.877,3.878c-.712.033-.938.04-2.749.04s-2.037-.007-2.748-.04a3.681,3.681,0,0,1-3.878-3.878c-.033-.711-.04-.937-.04-2.748s.008-2.037.04-2.748A3.68,3.68,0,0,1,7.252,3.374c.712-.033.937-.041,2.748-.041s2.037.008,2.749.04a3.679,3.679,0,0,1,3.877,3.877c.032.712.04.939.04,2.749S16.659,12.038,16.627,12.748Z" fill="#0d4077"/>
</svg>
