<svg xmlns="http://www.w3.org/2000/svg" width="35" height="35" viewBox="0 0 35 35">
  <path id="iconmonstr-twitter-3" d="M27.708,0H7.292A7.292,7.292,0,0,0,0,7.292V27.708A7.292,7.292,0,0,0,7.292,35H27.708A7.292,7.292,0,0,0,35,27.708V7.292A7.292,7.292,0,0,0,27.708,0Zm-.2,13.471A13.614,13.614,0,0,1,6.561,25.56a9.632,9.632,0,0,0,7.087-1.982,4.791,4.791,0,0,1-4.471-3.325,4.813,4.813,0,0,0,2.161-.082A4.792,4.792,0,0,1,7.5,15.418a4.763,4.763,0,0,0,2.167.6A4.8,4.8,0,0,1,8.184,9.625a13.592,13.592,0,0,0,9.867,5,4.79,4.79,0,0,1,8.158-4.365A9.6,9.6,0,0,0,29.251,9.1a4.807,4.807,0,0,1-2.1,2.648A9.593,9.593,0,0,0,29.9,11a9.712,9.712,0,0,1-2.39,2.475Z" fill="#d9d9d9"/>
</svg>
